<?xml version="1.0" encoding="utf-8" ?>
<svg xmlns="http://www.w3.org/2000/svg" xmlns:xlink="http://www.w3.org/1999/xlink" width="512" height="512">
	<path fill="#E0FF4F" d="M0 0L0 512L512 512L512 0L0 0Z"/>
	<path fill="#00272B" d="M421.494 414.295L100.713 414.385C88.8209 414.382 76.553 415.177 76.503 399.222C76.448 381.639 88.3395 350.41 93.9156 333.646L114.58 270.385C118.833 256.71 118.906 254.341 114.711 240.104L89.962 163.209C84.6466 147.59 77.5343 129.308 76.6447 112.662C76.0759 102.018 79.745 95.276 91.1065 94.8085L416.59 94.8234C419.267 94.8305 422.827 94.4384 425.395 95.232C445.818 101.545 429.564 141.457 425.075 154.409L401.832 225.371C398.909 234.83 395.135 244.496 393.893 254.36C393.382 258.421 394.98 262.814 396.133 266.655L414.421 323.469L427.159 361.481C430.396 371.794 436.916 391.46 435.387 402.42L435.337 402.743C434.255 410.276 428.767 413.853 421.494 414.295ZM387.583 134.162L123.021 134.331C115.935 134.383 118.62 138.864 120.497 143.23L140.013 190.859C140.599 192.299 141.21 193.748 141.676 195.232C142.604 198.181 136.822 200.386 136.446 203.564L136.406 203.888C136.235 205.498 136.312 207.177 136.306 208.796L136.282 308.049C136.317 308.834 136.432 309.403 136.881 310.047L137.041 310.281C138.586 312.461 141.624 314.414 141.193 317.415C140.727 320.664 138.641 324.176 137.371 327.203L121.883 363.802C119.241 370.479 114.848 375.679 125.744 375.557L125.869 375.412L388.187 375.426C394.221 375.452 394.419 374.303 391.96 368.401L373.741 324.404C372.458 321.401 370.739 318.362 370.188 315.125C375.931 310.312 375.728 309.741 375.706 302.771L375.687 212.81C375.714 208.741 376.455 204.07 373.667 200.701C368.922 194.968 368.654 198.719 372.524 189.704L391.641 142.538C394.105 137.197 395.977 133.975 387.583 134.162Z"/>
	<path fill="#00272B" d="M310.703 344.557L173.391 344.567C171.604 344.565 169.731 344.674 167.956 344.47C159.221 343.464 153.32 336.202 153.197 327.479L153.229 188.482C153.241 175.433 158.694 166.744 172.275 166.717L201.809 166.697L338.464 166.677C340.162 166.677 341.937 166.566 343.619 166.779C351.987 167.835 358.59 176.897 358.684 184.955L358.691 324.36C358.69 326.489 358.761 328.708 358.459 330.817C357.18 339.74 348.634 344.553 340.324 344.564L310.703 344.557ZM228.046 204.886C220.596 205.819 221.167 210.415 221.269 216.049L221.334 285.84C221.336 290.367 220.96 295.295 221.539 299.769C222.337 305.955 229.88 306.761 234.391 304.261C238.613 301.922 242.665 298.843 246.691 296.169L269.39 281.133L290.285 267.094C295.805 263.371 302.495 261.401 301.26 253.965L301.218 253.702C300.758 251.209 296.205 248.887 294.3 247.627L242.307 213.149C238.097 210.257 233.431 205.069 228.046 204.886Z"/>
</svg>
